<mxfile host="app.diagrams.net" modified="2022-06-03T12:00:22.441Z" agent="5.0 (Macintosh; Intel Mac OS X 10_15_7) AppleWebKit/537.36 (KHTML, like Gecko) Chrome/102.0.0.0 Safari/537.36" etag="n9j0cs71D__HljacqHy7" version="18.2.0" type="github">
  <diagram id="ISdvE9SEzVkkVVnuKj9r" name="Page-1">
    <mxGraphModel dx="1234" dy="714" grid="1" gridSize="10" guides="1" tooltips="1" connect="1" arrows="1" fold="1" page="1" pageScale="1" pageWidth="827" pageHeight="1169" math="0" shadow="0">
      <root>
        <mxCell id="0" />
        <mxCell id="1" parent="0" />
        <mxCell id="5d7tFAnzacXQxKmAng9d-25" value="" style="rounded=0;whiteSpace=wrap;html=1;" vertex="1" parent="1">
          <mxGeometry x="60" y="80" width="710" height="360" as="geometry" />
        </mxCell>
        <mxCell id="5d7tFAnzacXQxKmAng9d-1" value="" style="rounded=0;whiteSpace=wrap;html=1;fillColor=#e1d5e7;strokeColor=#9673a6;" vertex="1" parent="1">
          <mxGeometry x="80" y="120" width="380" height="300" as="geometry" />
        </mxCell>
        <mxCell id="5d7tFAnzacXQxKmAng9d-2" value="Bitrise Internal" style="text;html=1;strokeColor=none;fillColor=none;align=center;verticalAlign=middle;whiteSpace=wrap;rounded=0;" vertex="1" parent="1">
          <mxGeometry x="80" y="120" width="60" height="30" as="geometry" />
        </mxCell>
        <mxCell id="5d7tFAnzacXQxKmAng9d-3" value="DEN DB" style="shape=cylinder3;whiteSpace=wrap;html=1;boundedLbl=1;backgroundOutline=1;size=15;" vertex="1" parent="1">
          <mxGeometry x="180" y="310" width="60" height="80" as="geometry" />
        </mxCell>
        <mxCell id="5d7tFAnzacXQxKmAng9d-4" value="" style="rounded=0;whiteSpace=wrap;html=1;" vertex="1" parent="1">
          <mxGeometry x="480" y="120" width="220" height="200" as="geometry" />
        </mxCell>
        <mxCell id="5d7tFAnzacXQxKmAng9d-5" value="" style="rounded=0;whiteSpace=wrap;html=1;" vertex="1" parent="1">
          <mxGeometry x="535" y="150" width="120" height="70" as="geometry" />
        </mxCell>
        <mxCell id="5d7tFAnzacXQxKmAng9d-6" value="Mac Mini" style="text;html=1;strokeColor=none;fillColor=none;align=center;verticalAlign=middle;whiteSpace=wrap;rounded=0;" vertex="1" parent="1">
          <mxGeometry x="480" y="120" width="60" height="30" as="geometry" />
        </mxCell>
        <mxCell id="5d7tFAnzacXQxKmAng9d-8" value="" style="rounded=0;whiteSpace=wrap;html=1;" vertex="1" parent="1">
          <mxGeometry x="535" y="230" width="120" height="70" as="geometry" />
        </mxCell>
        <mxCell id="5d7tFAnzacXQxKmAng9d-11" value="VM" style="text;html=1;strokeColor=none;fillColor=none;align=center;verticalAlign=middle;whiteSpace=wrap;rounded=0;" vertex="1" parent="1">
          <mxGeometry x="535" y="150" width="40" height="20" as="geometry" />
        </mxCell>
        <mxCell id="5d7tFAnzacXQxKmAng9d-12" value="VM" style="text;html=1;strokeColor=none;fillColor=none;align=center;verticalAlign=middle;whiteSpace=wrap;rounded=0;" vertex="1" parent="1">
          <mxGeometry x="535" y="230" width="40" height="20" as="geometry" />
        </mxCell>
        <mxCell id="5d7tFAnzacXQxKmAng9d-13" value="DEN Agent" style="rounded=0;whiteSpace=wrap;html=1;fillColor=#f8cecc;strokeColor=#b85450;" vertex="1" parent="1">
          <mxGeometry x="560" y="170" width="90" height="40" as="geometry" />
        </mxCell>
        <mxCell id="5d7tFAnzacXQxKmAng9d-14" value="DEN Agent" style="rounded=0;whiteSpace=wrap;html=1;fillColor=#d5e8d4;strokeColor=#82b366;" vertex="1" parent="1">
          <mxGeometry x="560" y="250" width="90" height="40" as="geometry" />
        </mxCell>
        <mxCell id="5d7tFAnzacXQxKmAng9d-15" value="" style="endArrow=classic;html=1;rounded=0;exitX=0;exitY=0.5;exitDx=0;exitDy=0;" edge="1" parent="1" source="5d7tFAnzacXQxKmAng9d-14" target="5d7tFAnzacXQxKmAng9d-16">
          <mxGeometry width="50" height="50" relative="1" as="geometry">
            <mxPoint x="390" y="380" as="sourcePoint" />
            <mxPoint x="540" y="390" as="targetPoint" />
          </mxGeometry>
        </mxCell>
        <mxCell id="5d7tFAnzacXQxKmAng9d-16" value="DEN Server" style="rounded=0;whiteSpace=wrap;html=1;" vertex="1" parent="1">
          <mxGeometry x="320" y="300" width="120" height="60" as="geometry" />
        </mxCell>
        <mxCell id="5d7tFAnzacXQxKmAng9d-17" value="" style="endArrow=classic;html=1;rounded=0;exitX=0;exitY=0.5;exitDx=0;exitDy=0;entryX=1;entryY=0.5;entryDx=0;entryDy=0;entryPerimeter=0;" edge="1" parent="1" source="5d7tFAnzacXQxKmAng9d-16" target="5d7tFAnzacXQxKmAng9d-3">
          <mxGeometry width="50" height="50" relative="1" as="geometry">
            <mxPoint x="390" y="380" as="sourcePoint" />
            <mxPoint x="440" y="330" as="targetPoint" />
          </mxGeometry>
        </mxCell>
        <mxCell id="5d7tFAnzacXQxKmAng9d-18" value="VM GC" style="rounded=0;whiteSpace=wrap;html=1;" vertex="1" parent="1">
          <mxGeometry x="150" y="155" width="120" height="60" as="geometry" />
        </mxCell>
        <mxCell id="5d7tFAnzacXQxKmAng9d-19" value="query running jobs" style="endArrow=classic;html=1;rounded=0;exitX=1;exitY=0.5;exitDx=0;exitDy=0;entryX=0;entryY=0.5;entryDx=0;entryDy=0;labelBackgroundColor=#E1D5E7;" edge="1" parent="1" source="5d7tFAnzacXQxKmAng9d-18" target="5d7tFAnzacXQxKmAng9d-20">
          <mxGeometry width="50" height="50" relative="1" as="geometry">
            <mxPoint x="390" y="380" as="sourcePoint" />
            <mxPoint x="440" y="330" as="targetPoint" />
          </mxGeometry>
        </mxCell>
        <mxCell id="5d7tFAnzacXQxKmAng9d-20" value="Nomad" style="rounded=0;whiteSpace=wrap;html=1;" vertex="1" parent="1">
          <mxGeometry x="390" y="155" width="120" height="60" as="geometry" />
        </mxCell>
        <mxCell id="5d7tFAnzacXQxKmAng9d-21" value="" style="endArrow=classic;html=1;rounded=0;labelBackgroundColor=#E1D5E7;exitX=1;exitY=0.5;exitDx=0;exitDy=0;entryX=0;entryY=0.5;entryDx=0;entryDy=0;" edge="1" parent="1" source="5d7tFAnzacXQxKmAng9d-20" target="5d7tFAnzacXQxKmAng9d-5">
          <mxGeometry width="50" height="50" relative="1" as="geometry">
            <mxPoint x="390" y="380" as="sourcePoint" />
            <mxPoint x="440" y="330" as="targetPoint" />
          </mxGeometry>
        </mxCell>
        <mxCell id="5d7tFAnzacXQxKmAng9d-22" value="" style="endArrow=classic;html=1;rounded=0;labelBackgroundColor=#E1D5E7;exitX=1;exitY=0.75;exitDx=0;exitDy=0;entryX=0;entryY=0.5;entryDx=0;entryDy=0;" edge="1" parent="1" source="5d7tFAnzacXQxKmAng9d-20" target="5d7tFAnzacXQxKmAng9d-8">
          <mxGeometry width="50" height="50" relative="1" as="geometry">
            <mxPoint x="390" y="380" as="sourcePoint" />
            <mxPoint x="440" y="330" as="targetPoint" />
          </mxGeometry>
        </mxCell>
        <mxCell id="5d7tFAnzacXQxKmAng9d-23" value="query known jobs" style="endArrow=classic;html=1;rounded=0;labelBackgroundColor=#E1D5E7;exitX=0.5;exitY=1;exitDx=0;exitDy=0;entryX=0.5;entryY=0;entryDx=0;entryDy=0;entryPerimeter=0;" edge="1" parent="1" source="5d7tFAnzacXQxKmAng9d-18" target="5d7tFAnzacXQxKmAng9d-3">
          <mxGeometry width="50" height="50" relative="1" as="geometry">
            <mxPoint x="390" y="380" as="sourcePoint" />
            <mxPoint x="440" y="330" as="targetPoint" />
          </mxGeometry>
        </mxCell>
        <mxCell id="5d7tFAnzacXQxKmAng9d-24" value="destroy zombies" style="endArrow=classic;html=1;rounded=0;labelBackgroundColor=#E1D5E7;exitX=1;exitY=1;exitDx=0;exitDy=0;entryX=0;entryY=1;entryDx=0;entryDy=0;" edge="1" parent="1" source="5d7tFAnzacXQxKmAng9d-18" target="5d7tFAnzacXQxKmAng9d-20">
          <mxGeometry width="50" height="50" relative="1" as="geometry">
            <mxPoint x="390" y="380" as="sourcePoint" />
            <mxPoint x="440" y="330" as="targetPoint" />
          </mxGeometry>
        </mxCell>
        <mxCell id="5d7tFAnzacXQxKmAng9d-26" value="VM GC" style="text;html=1;strokeColor=none;fillColor=none;align=center;verticalAlign=middle;whiteSpace=wrap;rounded=0;" vertex="1" parent="1">
          <mxGeometry x="60" y="80" width="60" height="30" as="geometry" />
        </mxCell>
      </root>
    </mxGraphModel>
  </diagram>
</mxfile>
